<?xml version="1.0" encoding="UTF-8"?>
<!DOCTYPE svg PUBLIC "-//W3C//DTD SVG 1.1//EN" "http://www.w3.org/Graphics/SVG/1.1/DTD/svg11.dtd">
<!-- Creator: CorelDRAW -->
<svg xmlns="http://www.w3.org/2000/svg" xml:space="preserve" width="380px" height="56px" version="1.1" style="shape-rendering:geometricPrecision; text-rendering:geometricPrecision; image-rendering:optimizeQuality; fill-rule:evenodd; clip-rule:evenodd"
viewBox="0 0 380 56"
 xmlns:xlink="http://www.w3.org/1999/xlink"
 xmlns:xodm="http://www.corel.com/coreldraw/odm/2003">
 <defs>
  <style type="text/css">
   <![CDATA[
    .fil2 {fill:#FEFEFE}
    .fil1 {fill:#C5C6C6}
    .fil3 {fill:#FEFEFE;fill-rule:nonzero}
    .fil0 {fill:#FEFEFE;fill-rule:nonzero}
   ]]>
  </style>
 </defs>
 <g id="Capa_x0020_1">
  <metadata id="CorelCorpID_0Corel-Layer"/>
  <g id="_1716267911648">
   <g>
    <path class="fil0" d="M36.66 21.22l-7.68 -3.27 0.35 -0.83 7.69 3.27 0.27 0.42 -0.63 0.41zm0.36 -0.83c0.23,0.1 0.33,0.36 0.24,0.59 -0.1,0.23 -0.37,0.33 -0.6,0.24l0.36 -0.83zm-0.8 8.62l0.17 -8.22 0.9 0.02 -0.17 8.22 -0.62 0.41 -0.28 -0.43zm0.9 0.02c-0.01,0.25 -0.21,0.44 -0.46,0.44 -0.25,0 -0.45,-0.21 -0.44,-0.46l0.9 0.02zm5.83 0.42l0.38 0.82 -0.15 0.04 -0.21 0.02 -0.21 0.02 -0.21 0.01 -0.21 0.02 -0.21 0.01 -0.21 0.01 -0.21 0 -0.21 0 -0.21 0 -0.21 0 -0.21 -0.01 -0.21 -0.01 -0.21 -0.02 -0.21 -0.01 -0.21 -0.02 -0.21 -0.03 -0.21 -0.03 -0.21 -0.03 -0.2 -0.03 -0.21 -0.04 -0.21 -0.04 -0.21 -0.04 -0.21 -0.05 -0.21 -0.05 -0.21 -0.06 -0.2 -0.06 -0.21 -0.06 -0.21 -0.07 -0.2 -0.07 -0.21 -0.07 -0.21 -0.08 -0.2 -0.08 0.34 -0.84 0.19 0.08 0.19 0.07 0.2 0.07 0.19 0.07 0.19 0.06 0.19 0.06 0.2 0.05 0.19 0.06 0.19 0.04 0.2 0.05 0.19 0.04 0.19 0.04 0.2 0.03 0.19 0.04 0.2 0.02 0.19 0.03 0.2 0.02 0.19 0.02 0.2 0.02 0.19 0.01 0.2 0.01 0.2 0.01 0.19 0 0.2 0 0.2 0 0.2 0 0.19 -0.01 0.2 -0.01 0.2 -0.01 0.2 -0.02 0.2 -0.02 0.2 -0.02 -0.14 0.04zm0.14 -0.04c0.24,-0.03 0.47,0.15 0.49,0.4 0.03,0.25 -0.15,0.47 -0.4,0.5l-0.09 -0.9zm-10.63 -18.93l0.61 -0.65 -0.3 -0.12 2.1 0.04 1.97 0.13 1.84 0.2 1.72 0.27 1.59 0.34 1.46 0.4 1.35 0.45 1.22 0.52 1.11 0.56 0.99 0.61 0.87 0.66 0.77 0.7 0.65 0.74 0.53 0.78 0.43 0.8 0.31 0.83 0.2 0.85 0.1 0.86 -0.01 0.87 -0.12 0.87 -0.22 0.87 -0.32 0.86 -0.41 0.85 -0.5 0.83 -0.6 0.81 -0.68 0.79 -0.76 0.77 -0.85 0.73 -0.93 0.7 -1.01 0.67 -1.09 0.62 -1.15 0.58 -0.38 -0.82 1.11 -0.55 1.04 -0.6 0.96 -0.63 0.88 -0.67 0.8 -0.69 0.72 -0.72 0.64 -0.74 0.55 -0.75 0.46 -0.76 0.37 -0.77 0.29 -0.78 0.19 -0.77 0.11 -0.77 0.01 -0.76 -0.08 -0.75 -0.18 -0.73 -0.27 -0.73 -0.38 -0.7 -0.47 -0.69 -0.59 -0.67 -0.69 -0.64 -0.81 -0.6 -0.92 -0.58 -1.05 -0.53 -1.16 -0.48 -1.29 -0.44 -1.41 -0.39 -1.54 -0.32 -1.67 -0.27 -1.8 -0.19 -1.94 -0.13 -2.06 -0.04 -0.31 -0.13zm0.31 0.13c-0.25,-0.01 -0.45,-0.21 -0.45,-0.46 0,-0.25 0.2,-0.45 0.45,-0.44l0 0.9zm-8.92 -9.34l9.22 8.56 -0.61 0.65 -9.23 -8.55 0.28 -0.78 0.34 0.12zm-0.62 0.66c-0.18,-0.17 -0.19,-0.45 -0.02,-0.63 0.17,-0.19 0.46,-0.2 0.64,-0.03l-0.62 0.66zm26.18 7.47l-0.75 0.5 0.08 0.09 -0.69 -0.58 -0.69 -0.55 -0.69 -0.53 -0.71 -0.51 -0.71 -0.49 -0.72 -0.46 -0.72 -0.44 -0.73 -0.42 -0.74 -0.4 -0.75 -0.38 -0.75 -0.36 -0.76 -0.33 -0.76 -0.32 -0.77 -0.29 -0.78 -0.27 -0.78 -0.25 -0.79 -0.23 -0.8 -0.21 -0.81 -0.19 -0.81 -0.17 -0.81 -0.16 -0.83 -0.13 -0.83 -0.11 -0.83 -0.09 -0.84 -0.08 -0.85 -0.05 -0.85 -0.04 -0.86 -0.01 -0.87 0 -0.87 0.02 -0.88 0.03 -0.89 0.06 -0.06 -0.9 0.9 -0.05 0.9 -0.04 0.89 -0.02 0.88 0 0.88 0.01 0.88 0.04 0.87 0.06 0.86 0.07 0.86 0.1 0.85 0.11 0.84 0.14 0.84 0.15 0.83 0.18 0.83 0.2 0.82 0.21 0.81 0.24 0.81 0.26 0.8 0.28 0.79 0.3 0.79 0.32 0.78 0.35 0.77 0.36 0.77 0.39 0.76 0.41 0.75 0.43 0.74 0.46 0.74 0.47 0.73 0.5 0.72 0.53 0.72 0.54 0.71 0.57 0.7 0.59 0.08 0.09zm-0.08 -0.09c0.19,0.16 0.21,0.45 0.04,0.64 -0.16,0.19 -0.44,0.21 -0.63,0.04l0.59 -0.68zm-9.67 22.21l-0.19 -0.89 0.01 0 0.89 -0.21 0.87 -0.25 0.85 -0.29 0.83 -0.32 0.8 -0.36 0.76 -0.4 0.74 -0.43 0.71 -0.46 0.67 -0.49 0.63 -0.53 0.6 -0.55 0.56 -0.58 0.52 -0.6 0.47 -0.63 0.43 -0.65 0.38 -0.68 0.34 -0.7 0.28 -0.72 0.24 -0.74 0.18 -0.76 0.13 -0.78 0.08 -0.8 0.01 -0.82 -0.04 -0.83 -0.11 -0.85 -0.17 -0.86 -0.24 -0.87 -0.3 -0.89 -0.37 -0.91 -0.45 -0.91 -0.52 -0.92 -0.59 -0.94 0.75 -0.5 0.62 0.97 0.54 0.97 0.47 0.97 0.39 0.95 0.33 0.94 0.25 0.94 0.18 0.92 0.11 0.91 0.05 0.9 -0.01 0.88 -0.08 0.86 -0.14 0.84 -0.2 0.83 -0.25 0.8 -0.31 0.78 -0.37 0.75 -0.41 0.73 -0.46 0.71 -0.51 0.67 -0.55 0.65 -0.6 0.62 -0.63 0.58 -0.68 0.56 -0.71 0.52 -0.74 0.49 -0.78 0.45 -0.81 0.42 -0.84 0.38 -0.86 0.34 -0.9 0.3 -0.91 0.26 -0.94 0.23 0 0zm0 0c-0.24,0.05 -0.48,-0.11 -0.53,-0.35 -0.05,-0.25 0.1,-0.48 0.35,-0.54l0.18 0.89zm-11.05 -2.33l0.9 0 -0.25 -0.4 0.3 0.15 0.31 0.14 0.3 0.14 0.31 0.14 0.3 0.13 0.31 0.13 0.31 0.13 0.31 0.11 0.31 0.12 0.32 0.11 0.31 0.1 0.32 0.09 0.31 0.09 0.32 0.09 0.32 0.07 0.32 0.07 0.32 0.07 0.32 0.05 0.32 0.05 0.32 0.04 0.33 0.03 0.32 0.03 0.33 0.01 0.33 0.01 0.33 0 0.32 -0.01 0.33 -0.01 0.33 -0.03 0.33 -0.04 0.34 -0.04 0.33 -0.06 0.33 -0.07 0.19 0.89 -0.36 0.07 -0.36 0.06 -0.35 0.05 -0.36 0.04 -0.36 0.02 -0.35 0.02 -0.35 0.01 -0.35 0 -0.35 -0.01 -0.35 -0.01 -0.35 -0.03 -0.35 -0.04 -0.34 -0.04 -0.34 -0.05 -0.35 -0.06 -0.34 -0.07 -0.33 -0.07 -0.34 -0.08 -0.34 -0.09 -0.33 -0.09 -0.33 -0.1 -0.33 -0.11 -0.33 -0.11 -0.32 -0.12 -0.33 -0.13 -0.32 -0.12 -0.32 -0.14 -0.32 -0.14 -0.32 -0.14 -0.31 -0.14 -0.31 -0.16 -0.31 -0.15 -0.25 -0.4zm0.25 0.4c-0.23,-0.11 -0.31,-0.38 -0.2,-0.61 0.11,-0.22 0.38,-0.31 0.6,-0.19l-0.4 0.8zm0.65 -0.91l0 0.51 -0.9 0 0 -0.51 0 0 0.9 0zm-0.9 0c0,-0.24 0.2,-0.45 0.45,-0.45 0.25,0 0.45,0.21 0.45,0.45l-0.9 0zm0.99 -11.14l-0.09 11.15 -0.9 -0.01 0.09 -11.15 0.63 -0.41 0.27 0.42zm-0.9 -0.01c0,-0.25 0.21,-0.45 0.46,-0.45 0.24,0 0.45,0.21 0.44,0.46l-0.9 -0.01z"/>
    <path id="_1" class="fil1" d="M29.15 17.53l7.69 3.27 -0.17 8.22c2.12,0.87 4.28,1.08 6.47,0.84 12.51,-5.8 12.58,-19.6 -10.37,-19.7l-9.23 -8.56c9.56,-0.7 18.15,1.69 25.49,8.05 6.9,10.21 0.42,19.33 -9.46,21.42 -3.71,0.79 -7.25,-0.24 -10.51,-1.88l0 -0.51 0.09 -11.15z"/>
   </g>
   <path class="fil2" d="M22.71 2.45c-24.23,6.41 -27.99,23.93 -15.89,34.94 12.78,11.62 40.97,13.07 55.14,2.28 7.16,-5.46 11.43,-13.3 8.22,-19.75 0.82,20 -21.92,27.92 -40.58,22.24 -22.3,-6.77 -26.5,-28.57 -6.89,-39.71z"/>
   <path class="fil2" d="M22.52 17.48l0 18.57c9.37,4.55 18.52,3.99 27.49,-0.59 1.4,-0.31 0.43,-0.1 0.66,-0.1 17.15,-14.8 5.59,-30.83 -13.52,-34.48 -5.17,-0.32 -9.94,-0.2 -13.96,0.68 42.7,0.09 30.94,37.5 5.54,27.74l0 -11.91 -6.21 0.09z"/>
   <path class="fil2" d="M23.4 1.63c-24.22,6.42 -27.99,23.94 -15.89,34.94 12.79,11.63 40.97,13.07 55.14,2.28 7.17,-5.45 11.43,-13.29 8.23,-19.74 0.81,20 -21.92,27.91 -40.59,22.24 -22.3,-6.78 -26.5,-28.58 -6.89,-39.72z"/>
   <path class="fil2" d="M22.79 17.48l0 18.57c19.93,9.69 35.86,-2.37 36.42,-15.12 0.71,-16 -20.51,-22.71 -35.75,-19.37 42.69,0.09 30.93,37.5 5.54,27.74l0 -11.91 -6.21 0.09z"/>
   <g>
    <path class="fil0" d="M16.06 33.52l-0.65 0.62 -0.03 -0.03 -0.81 -1.06 -0.74 -1.07 -0.68 -1.07 -0.61 -1.07 -0.54 -1.08 -0.47 -1.08 -0.41 -1.08 -0.34 -1.09 -0.27 -1.08 -0.2 -1.08 -0.13 -1.07 -0.07 -1.08 0 -1.07 0.07 -1.06 0.14 -1.05 0.21 -1.05 0.27 -1.04 0.34 -1.03 0.41 -1.02 0.48 -1 0.55 -0.99 0.61 -0.98 0.68 -0.97 0.74 -0.95 0.81 -0.93 0.88 -0.91 0.94 -0.9 1.01 -0.88 1.07 -0.86 1.14 -0.84 1.2 -0.81 1.27 -0.8 0.47 0.77 -1.24 0.78 -1.18 0.8 -1.11 0.82 -1.05 0.83 -0.97 0.86 -0.92 0.86 -0.84 0.89 -0.79 0.9 -0.71 0.91 -0.65 0.92 -0.59 0.94 -0.51 0.95 -0.46 0.95 -0.39 0.97 -0.32 0.98 -0.26 0.98 -0.2 0.99 -0.13 1 -0.07 1.01 0 1.01 0.06 1.01 0.13 1.02 0.19 1.03 0.26 1.03 0.33 1.03 0.39 1.04 0.45 1.03 0.52 1.04 0.59 1.04 0.65 1.04 0.72 1.03 0.79 1.03 -0.03 -0.03zm0.03 0.03c0.15,0.2 0.12,0.48 -0.07,0.63 -0.2,0.16 -0.48,0.13 -0.64,-0.07l0.71 -0.56zm54.7 -13.22l-0.34 -0.83 0.62 0.4 -0.04 2.41 -0.26 2.29 -0.48 2.17 -0.67 2.05 -0.87 1.93 -1.05 1.81 -1.22 1.68 -1.37 1.55 -1.52 1.43 -1.64 1.3 -1.77 1.17 -1.87 1.05 -1.97 0.91 -2.06 0.79 -2.13 0.66 -2.19 0.53 -2.25 0.4 -2.28 0.27 -2.31 0.14 -2.34 0.01 -2.34 -0.12 -2.33 -0.25 -2.32 -0.38 -2.3 -0.52 -2.26 -0.66 -2.21 -0.78 -2.15 -0.92 -2.08 -1.06 -2 -1.2 -1.9 -1.33 -1.8 -1.47 -1.68 -1.62 0.65 -0.62 1.63 1.56 1.75 1.43 1.85 1.3 1.94 1.16 2.02 1.03 2.1 0.9 2.16 0.77 2.21 0.63 2.24 0.51 2.27 0.38 2.28 0.25 2.29 0.11 2.29 -0.01 2.26 -0.13 2.23 -0.27 2.19 -0.39 2.14 -0.52 2.07 -0.64 2 -0.77 1.92 -0.88 1.81 -1.01 1.71 -1.14 1.58 -1.25 1.46 -1.37 1.32 -1.49 1.16 -1.61 1 -1.73 0.84 -1.84 0.65 -1.97 0.45 -2.08 0.25 -2.2 0.04 -2.32 0.62 0.4zm-0.62 -0.4c-0.01,-0.25 0.19,-0.46 0.44,-0.47 0.24,0 0.45,0.19 0.46,0.44l-0.9 0.03zm-10.06 3.73l10.34 -4.16 0.34 0.83 -10.34 4.16 -0.62 -0.43 0.28 -0.4zm0.34 0.83c-0.23,0.1 -0.5,-0.02 -0.59,-0.24 -0.09,-0.23 0.02,-0.5 0.25,-0.59l0.34 0.83zm-45.32 -2.41l0.89 0.14 0 0 -0.22 2.13 0.06 2.02 0.32 1.9 0.56 1.78 0.78 1.67 0.99 1.55 1.18 1.43 1.35 1.31 1.51 1.19 1.65 1.06 1.78 0.93 1.88 0.8 1.96 0.66 2.04 0.52 2.09 0.38 2.12 0.23 2.13 0.09 2.13 -0.07 2.11 -0.21 2.06 -0.37 2.01 -0.53 1.94 -0.68 1.84 -0.84 1.73 -1 1.6 -1.17 1.45 -1.33 1.29 -1.49 1.12 -1.67 0.92 -1.84 0.71 -2.02 0.48 -2.2 0.24 -2.39 0.9 0.04 -0.25 2.49 -0.5 2.3 -0.75 2.13 -0.97 1.94 -1.18 1.76 -1.36 1.58 -1.53 1.4 -1.68 1.22 -1.81 1.05 -1.91 0.88 -2.01 0.7 -2.08 0.55 -2.14 0.38 -2.17 0.22 -2.2 0.07 -2.19 -0.09 -2.18 -0.24 -2.15 -0.39 -2.1 -0.54 -2.03 -0.68 -1.95 -0.83 -1.84 -0.96 -1.72 -1.11 -1.58 -1.24 -1.42 -1.38 -1.25 -1.51 -1.05 -1.65 -0.83 -1.77 -0.59 -1.9 -0.34 -2.02 -0.07 -2.14 0.23 -2.24 0 0zm0 0c0.03,-0.25 0.27,-0.41 0.51,-0.38 0.25,0.04 0.41,0.28 0.38,0.52l-0.89 -0.14zm9.19 -10.86l0.88 -0.16 -0.22 0.47 -0.53 0.3 -0.51 0.3 -0.49 0.3 -0.47 0.31 -0.46 0.31 -0.44 0.31 -0.42 0.32 -0.4 0.31 -0.39 0.32 -0.37 0.32 -0.36 0.33 -0.34 0.32 -0.32 0.33 -0.31 0.33 -0.3 0.33 -0.27 0.33 -0.27 0.34 -0.25 0.34 -0.23 0.34 -0.22 0.34 -0.21 0.34 -0.19 0.35 -0.18 0.34 -0.17 0.36 -0.15 0.35 -0.14 0.35 -0.12 0.36 -0.12 0.36 -0.1 0.36 -0.09 0.36 -0.08 0.36 -0.06 0.37 -0.89 -0.14 0.07 -0.4 0.08 -0.39 0.1 -0.4 0.11 -0.38 0.12 -0.39 0.14 -0.38 0.15 -0.39 0.16 -0.38 0.18 -0.37 0.19 -0.38 0.21 -0.37 0.22 -0.37 0.24 -0.36 0.25 -0.37 0.26 -0.36 0.28 -0.35 0.3 -0.36 0.31 -0.35 0.33 -0.35 0.34 -0.34 0.36 -0.34 0.37 -0.34 0.39 -0.34 0.4 -0.33 0.42 -0.33 0.44 -0.33 0.46 -0.32 0.47 -0.32 0.49 -0.32 0.51 -0.31 0.52 -0.31 0.54 -0.31 -0.22 0.48zm0.22 -0.48c0.22,-0.12 0.49,-0.04 0.61,0.18 0.12,0.22 0.05,0.49 -0.17,0.61l-0.44 -0.79zm-0.93 -8.38l1.59 8.7 -0.88 0.16 -1.6 -8.69 0.21 -0.47 0.68 0.3zm-0.89 0.17c-0.05,-0.25 0.12,-0.48 0.36,-0.53 0.25,-0.04 0.48,0.12 0.53,0.36l-0.89 0.17z"/>
    <path id="_1_0" class="fil1" d="M23.16 2.45c-13.74,8.29 -16.3,20.24 -7.43,31.38 17.02,17.65 55.71,11.95 54.89,-13.92l-10.34 4.17c-1.14,27.02 -48.62,22.01 -44.71,-1.93 0.67,-4.08 3.4,-7.8 9.19,-11.01l-1.6 -8.69z"/>
   </g>
   <path class="fil3" d="M93.53 36.83l3.23 1.43c1.04,0.48 1.89,0.8 2.58,0.97 0.67,0.17 1.32,0.26 1.96,0.26 2.91,0 5.44,-1.94 7.61,-5.8 2.16,-3.84 3.47,-7.98 3.92,-12.39 0.49,-4.67 -0.25,-8.43 -2.2,-11.27 -1.94,-2.84 -4.72,-4.26 -8.34,-4.26 -2.89,0 -5.72,1.05 -8.47,3.14 -2.76,2.1 -4.26,4.33 -4.5,6.67 -0.18,1.75 0.44,2.95 1.84,3.58 0.61,0.31 0.89,0.7 0.83,1.2 -0.05,0.52 -0.8,1.07 -2.24,1.68 -1.44,0.6 -2.31,0.9 -2.61,0.9 -0.89,0 -1.62,-0.53 -2.21,-1.58 -0.57,-1.05 -0.79,-2.22 -0.66,-3.49 0.35,-3.39 2.43,-6.6 6.25,-9.64 3.81,-3.04 8.54,-4.57 14.15,-4.57 5.37,0 9.5,1.5 12.39,4.48 2.89,2.99 4.07,6.99 3.55,12.01 -0.39,3.83 -1.75,7.46 -4.08,10.9 -2.33,3.44 -5.27,6.18 -8.83,8.19 -3.55,2.02 -7.19,3.03 -10.93,3.03 -3.15,0 -6.01,-0.69 -8.58,-2.07 -2.35,1.38 -4.32,2.07 -5.93,2.07 -0.92,0 -1.66,-0.26 -2.23,-0.8 -0.57,-0.52 -0.81,-1.18 -0.74,-1.94 0.13,-1.23 0.89,-2.28 2.25,-3.13 1.37,-0.85 3.03,-1.28 4.95,-1.28 1.38,0 2.66,0.23 3.86,0.66 1.2,-0.91 2.07,-2.02 2.61,-3.32 0.54,-1.29 1.18,-3.57 1.92,-6.86 0.74,-3.28 1.64,-5.86 2.69,-7.73 1.05,-1.88 2.48,-3.46 4.29,-4.73 1.81,-1.27 3.57,-1.99 5.3,-2.19l0.88 1.41c-1.2,1.11 -2.13,2.25 -2.79,3.4 -0.65,1.15 -1.39,3.63 -2.21,7.43 -0.82,3.81 -1.95,6.67 -3.36,8.57 -1.42,1.91 -3.47,3.6 -6.15,5.07zm41.97 -28.17c-0.44,4.26 -2.22,6.38 -5.32,6.38 -1.51,0 -2.76,-0.46 -3.73,-1.38 1.18,-1.56 2.15,-3.31 2.92,-5.26 1.29,0.87 2.36,1.3 3.21,1.3 0.94,0 1.92,-0.35 2.92,-1.04zm-2.26 27.08c-4.56,4.35 -7.86,6.53 -9.9,6.53 -1.12,0 -2.01,-0.58 -2.66,-1.74 -0.66,-1.16 -0.89,-2.61 -0.71,-4.38 0.39,-3.77 2.19,-9 5.41,-15.68l6.83 -1.41 0.32 0 -3.49 8.33c-1.45,3.44 -2.24,5.89 -2.39,7.36 -0.06,0.59 0.02,1.06 0.23,1.42 0.22,0.37 0.52,0.55 0.91,0.55 0.68,0 1.4,-0.26 2.14,-0.76 0.75,-0.5 1.96,-1.6 3.62,-3.28l-0.31 3.06zm25.85 0c-2.47,2.35 -5.32,4.09 -8.54,5.21 -1.93,4.59 -4.14,8.12 -6.64,10.61 -2.49,2.48 -4.99,3.72 -7.5,3.72 -1.38,0 -2.44,-0.44 -3.19,-1.31 -0.75,-0.86 -1.05,-2 -0.91,-3.43 0.2,-1.89 1.21,-3.59 3.05,-5.1 1.82,-1.51 4.82,-2.96 8.99,-4.37l1.67 -5.23c-1.88,1.91 -3.48,3.32 -4.81,4.22 -1.32,0.89 -2.6,1.34 -3.85,1.34 -1.45,0 -2.58,-0.7 -3.37,-2.08 -0.78,-1.38 -1.06,-3.18 -0.84,-5.4 0.38,-3.61 2.09,-7.01 5.15,-10.16 3.05,-3.17 6.12,-4.75 9.19,-4.75 1.7,0 3.14,0.73 4.31,2.18 0.82,-0.28 1.89,-0.71 3.21,-1.28l1.96 -0.85 0.6 0c-0.9,2.09 -1.64,4.13 -2.21,6.11l-3.84 13.33c2.46,-0.9 5.09,-2.84 7.89,-5.82l-0.32 3.06zm-17.04 0.87c1.24,0 2.42,-0.75 3.54,-2.23 1.12,-1.49 2.07,-3.38 2.84,-5.67 0.77,-2.29 1.2,-3.87 1.29,-4.75 0.09,-0.84 -0.05,-1.53 -0.4,-2.06 -0.36,-0.55 -0.85,-0.82 -1.47,-0.82 -1.86,0 -3.61,1.27 -5.26,3.8 -1.65,2.54 -2.61,5.12 -2.88,7.74 -0.12,1.23 0.03,2.19 0.46,2.92 0.42,0.72 1.05,1.07 1.88,1.07zm1.51 6.81c-5.89,2.06 -8.96,4.43 -9.24,7.12 -0.08,0.8 0.08,1.45 0.51,1.96 0.41,0.5 1,0.76 1.73,0.76 1.26,0 2.44,-0.81 3.54,-2.42 1.1,-1.61 2.25,-4.09 3.46,-7.42zm30.73 -34.76c-0.44,4.26 -2.22,6.38 -5.32,6.38 -1.51,0 -2.76,-0.46 -3.73,-1.38 1.18,-1.56 2.15,-3.31 2.92,-5.26 1.29,0.87 2.36,1.3 3.21,1.3 0.94,0 1.92,-0.35 2.92,-1.04zm-2.26 27.08c-4.56,4.35 -7.86,6.53 -9.9,6.53 -1.12,0 -2.01,-0.58 -2.66,-1.74 -0.65,-1.16 -0.89,-2.61 -0.71,-4.38 0.39,-3.77 2.2,-9 5.41,-15.68l6.83 -1.41 0.32 0 -3.49 8.33c-1.45,3.44 -2.24,5.89 -2.39,7.36 -0.06,0.59 0.02,1.06 0.23,1.42 0.22,0.37 0.52,0.55 0.91,0.55 0.68,0 1.4,-0.26 2.14,-0.76 0.75,-0.5 1.96,-1.6 3.62,-3.28l-0.31 3.06zm15.16 0c-2.44,2.21 -4.52,3.85 -6.25,4.9 -1.72,1.05 -3.31,1.58 -4.76,1.58 -1.51,0 -2.68,-0.64 -3.48,-1.93 -0.81,-1.29 -1.11,-2.97 -0.89,-5.06 0.19,-1.84 0.88,-4.28 2.07,-7.32l1.58 -4.01 -2.05 0.11 1.28 -4.18 2.51 -0.1 3.33 -8.3 7.21 -1.46 -3.64 9.25 3.68 -0.21 -1.29 4.09 -4.12 0.32 -2.37 5.95c-0.81,2.08 -1.28,3.73 -1.41,4.95 -0.08,0.84 0.05,1.52 0.41,2.03 0.36,0.53 0.86,0.79 1.51,0.79 0.9,0 1.82,-0.29 2.75,-0.86 0.94,-0.58 2.36,-1.78 4.25,-3.6l-0.32 3.06zm28.1 0c-3.08,2.68 -5.27,4.44 -6.57,5.26 -1.29,0.81 -2.49,1.22 -3.6,1.22 -2.77,0 -3.82,-2.47 -3.16,-7.42 -2.02,2.53 -3.83,4.4 -5.43,5.61 -1.61,1.21 -3.21,1.81 -4.79,1.81 -1.54,0 -2.78,-0.73 -3.71,-2.19 -0.93,-1.46 -1.29,-3.26 -1.07,-5.39 0.28,-2.66 1.27,-5.19 2.96,-7.6 1.7,-2.41 3.76,-4.36 6.18,-5.85 2.42,-1.49 4.49,-2.24 6.23,-2.24 2.2,0 3.63,1.02 4.29,3.06l5.69 -3 1.47 0 -3.12 7.79c-1.6,3.92 -2.47,6.61 -2.62,8.06 -0.16,1.52 0.3,2.28 1.37,2.28 0.69,0 1.48,-0.37 2.38,-1.1 0.9,-0.74 2.17,-1.86 3.82,-3.36l-0.32 3.06zm-19.42 1.46c1.75,0 3.56,-1.52 5.43,-4.54 1.87,-3.02 2.93,-5.81 3.19,-8.36 0.1,-1 -0.03,-1.77 -0.42,-2.33 -0.38,-0.56 -0.94,-0.84 -1.67,-0.84 -1.76,0 -3.58,1.51 -5.46,4.52 -1.88,3.02 -2.96,5.79 -3.22,8.33 -0.1,0.96 0.05,1.73 0.46,2.33 0.41,0.59 0.97,0.89 1.69,0.89zm36.84 -1.46c-2.62,2.21 -4.89,3.85 -6.79,4.9 -1.91,1.05 -3.68,1.58 -5.32,1.58 -1.88,0 -3.31,-0.74 -4.31,-2.21 -1,-1.47 -1.37,-3.45 -1.11,-5.92 0.38,-3.73 1.64,-8.19 3.78,-13.41 2.13,-5.21 4.56,-10.01 7.3,-14.42l6.94 -2.49c0.23,-0.07 0.38,-0.11 0.49,-0.11 0.51,0 0.89,0.38 1.14,1.13 0.24,0.76 0.3,1.77 0.17,3.05 -0.38,3.62 -1.55,7.11 -3.56,10.51 -2,3.38 -4.95,6.99 -8.86,10.84 -0.33,1.85 -0.53,3.12 -0.6,3.81 -0.16,1.54 0,2.76 0.46,3.66 0.48,0.91 1.18,1.36 2.1,1.36 0.96,0 2,-0.35 3.14,-1.04 1.14,-0.69 2.92,-2.12 5.34,-4.3l-0.31 3.06zm-9.02 -10.4c2.49,-2.5 4.58,-5.31 6.29,-8.41 1.71,-3.1 2.68,-5.77 2.91,-8.01 0.07,-0.65 0.02,-1.18 -0.13,-1.57 -0.15,-0.4 -0.37,-0.6 -0.67,-0.6 -0.66,0 -1.77,1.63 -3.34,4.89 -1.57,3.27 -3.26,7.83 -5.06,13.7zm46 -21.2c-4.38,3.85 -7.7,7.95 -9.95,12.3 -2.27,4.36 -3.6,8.55 -4.01,12.59 -0.27,2.59 0.02,4.64 0.89,6.14 0.86,1.49 2.16,2.24 3.91,2.24 3.47,0 7.41,-3.07 11.81,-9.22 4.4,-6.14 6.87,-11.83 7.41,-17.08 0.16,-1.56 0.04,-2.8 -0.37,-3.73 -0.41,-0.91 -1.02,-1.38 -1.84,-1.38 -1.53,0 -3.07,1.16 -4.62,3.49 -1.55,2.32 -2.41,4.38 -2.59,6.2 -0.14,1.29 0.38,2.01 1.56,2.18 0.48,0.05 0.71,0.29 0.66,0.71 -0.08,0.78 -0.55,1.54 -1.42,2.3 -0.87,0.75 -1.73,1.13 -2.59,1.13 -1.06,0 -1.89,-0.48 -2.5,-1.45 -0.61,-0.96 -0.85,-2.18 -0.7,-3.63 0.32,-3.07 1.78,-6.04 4.36,-8.9 2.59,-2.88 5.08,-4.32 7.47,-4.32 1.63,0 2.85,0.66 3.66,1.97 0.82,1.29 1.1,3.09 0.87,5.38 -0.46,4.41 -2.15,9.11 -5.09,14.09 -2.93,4.98 -6.38,9.07 -10.35,12.28 -3.96,3.19 -7.55,4.79 -10.76,4.79 -2.5,0 -4.45,-1.06 -5.85,-3.19 -1.4,-2.13 -1.93,-4.86 -1.59,-8.21 0.37,-3.57 1.44,-7.18 3.24,-10.83 1.79,-3.65 3.96,-6.91 6.52,-9.78 2.56,-2.86 4.55,-4.65 5.96,-5.39 1.4,-0.73 3.39,-1.11 5.95,-1.11l-0.04 0.43zm28.17 31.6c-2.62,2.21 -4.88,3.85 -6.79,4.9 -1.9,1.05 -3.67,1.58 -5.31,1.58 -1.88,0 -3.31,-0.74 -4.31,-2.21 -1,-1.47 -1.37,-3.45 -1.12,-5.92 0.39,-3.73 1.65,-8.19 3.78,-13.41 2.13,-5.21 4.57,-10.01 7.31,-14.42l6.94 -2.49c0.23,-0.07 0.38,-0.11 0.49,-0.11 0.51,0 0.89,0.38 1.13,1.13 0.25,0.76 0.3,1.77 0.17,3.05 -0.37,3.62 -1.55,7.11 -3.55,10.51 -2,3.38 -4.96,6.99 -8.86,10.84 -0.33,1.85 -0.54,3.12 -0.61,3.81 -0.16,1.54 0.01,2.76 0.47,3.66 0.47,0.91 1.17,1.36 2.1,1.36 0.95,0 1.99,-0.35 3.14,-1.04 1.14,-0.69 2.92,-2.12 5.34,-4.3l-0.32 3.06zm-9.01 -10.4c2.48,-2.5 4.58,-5.31 6.29,-8.41 1.71,-3.1 2.68,-5.77 2.91,-8.01 0.06,-0.65 0.02,-1.18 -0.13,-1.57 -0.16,-0.4 -0.38,-0.6 -0.67,-0.6 -0.66,0 -1.77,1.63 -3.34,4.89 -1.58,3.27 -3.26,7.83 -5.06,13.7zm24.23 -16.68c-0.44,4.26 -2.22,6.38 -5.32,6.38 -1.51,0 -2.75,-0.46 -3.73,-1.38 1.18,-1.56 2.15,-3.31 2.91,-5.26 1.3,0.87 2.37,1.3 3.22,1.3 0.94,0 1.92,-0.35 2.92,-1.04zm-2.26 27.08c-4.56,4.35 -7.86,6.53 -9.9,6.53 -1.12,0 -2.01,-0.58 -2.66,-1.74 -0.66,-1.16 -0.89,-2.61 -0.71,-4.38 0.39,-3.77 2.19,-9 5.41,-15.68l6.83 -1.41 0.32 0 -3.49 8.33c-1.45,3.44 -2.24,5.89 -2.39,7.36 -0.06,0.59 0.02,1.06 0.23,1.42 0.22,0.37 0.52,0.55 0.91,0.55 0.68,0 1.4,-0.26 2.14,-0.76 0.75,-0.5 1.96,-1.6 3.62,-3.28l-0.31 3.06zm23.64 0c-0.88,0.71 -1.74,1.21 -2.6,1.51 -0.86,0.3 -1.51,0.45 -1.97,0.45 -1.29,0 -2.5,-0.49 -3.64,-1.49 -3.54,4.01 -7.06,6.01 -10.55,6.01 -1.82,0 -3.18,-0.63 -4.08,-1.9 -0.9,-1.27 -1.23,-3.04 -1,-5.31 0.26,-2.5 1.19,-5.56 2.79,-9.19l2.41 -5.46 7.3 -1.35 -4.17 9.59c-0.44,1.06 -0.89,2.29 -1.34,3.73 -0.44,1.44 -0.7,2.46 -0.76,3.08 -0.1,0.96 0.07,1.76 0.5,2.41 0.44,0.65 1.01,0.97 1.74,0.97 1.68,0 3.64,-1.46 5.89,-4.36 -0.71,-1.81 -0.96,-3.62 -0.77,-5.46 0.26,-2.53 1.15,-4.82 2.69,-6.85 1.53,-2.04 3.09,-3.06 4.67,-3.06 1.19,0 1.7,0.93 1.51,2.79 -0.38,3.6 -2.24,7.76 -5.61,12.47 0.81,0.84 1.7,1.25 2.69,1.25 1.2,0 2.73,-0.96 4.61,-2.89l-0.31 3.06zm28.1 0c-3.08,2.68 -5.28,4.44 -6.57,5.26 -1.29,0.81 -2.49,1.22 -3.6,1.22 -2.78,0 -3.83,-2.47 -3.16,-7.42 -2.02,2.53 -3.83,4.4 -5.44,5.61 -1.6,1.21 -3.2,1.81 -4.79,1.81 -1.53,0 -2.77,-0.73 -3.71,-2.19 -0.93,-1.46 -1.28,-3.26 -1.06,-5.39 0.27,-2.66 1.26,-5.19 2.96,-7.6 1.7,-2.41 3.76,-4.36 6.18,-5.85 2.41,-1.49 4.49,-2.24 6.23,-2.24 2.19,0 3.63,1.02 4.29,3.06l5.68 -3 1.48 0 -3.12 7.79c-1.6,3.92 -2.47,6.61 -2.62,8.06 -0.16,1.52 0.3,2.28 1.37,2.28 0.68,0 1.48,-0.37 2.38,-1.1 0.89,-0.74 2.17,-1.86 3.82,-3.36l-0.32 3.06zm-19.42 1.46c1.75,0 3.56,-1.52 5.43,-4.54 1.86,-3.02 2.92,-5.81 3.19,-8.36 0.1,-1 -0.04,-1.77 -0.42,-2.33 -0.38,-0.56 -0.94,-0.84 -1.68,-0.84 -1.75,0 -3.58,1.51 -5.45,4.52 -1.88,3.02 -2.96,5.79 -3.22,8.33 -0.1,0.96 0.05,1.73 0.46,2.33 0.4,0.59 0.97,0.89 1.69,0.89zm29.12 -17.05c1.24,-0.32 2.48,-0.58 3.74,-0.79 1.25,-0.2 2,-0.3 2.24,-0.3 0.18,0 0.25,0.07 0.24,0.21 -0.03,0.27 -0.12,0.55 -0.29,0.83 -0.37,0.82 -0.59,1.6 -0.67,2.34 -0.09,0.92 0.31,2.18 1.2,3.78 0.88,1.58 1.26,3.07 1.12,4.43 -0.28,2.72 -1.83,5.33 -4.67,7.85 -2.83,2.52 -5.63,3.77 -8.38,3.77 -1.19,0 -2.26,-0.31 -3.17,-0.95 -0.91,-0.65 -1.34,-1.33 -1.26,-2.05 0.04,-0.43 0.61,-1.24 1.71,-2.42 1.1,-1.19 1.86,-1.78 2.27,-1.78 0.57,0 1,0.72 1.28,2.18 0.29,1.45 0.97,2.18 2.04,2.18 1.08,0 2.13,-0.5 3.17,-1.51 1.04,-0.99 1.63,-2.07 1.75,-3.23 0.11,-1.11 -0.34,-2.6 -1.34,-4.46 -0.99,-1.86 -1.62,-3.42 -1.88,-4.69 -2.38,3.33 -5.31,6.72 -8.8,10.2l-0.6 0 0.24 -2.4c4.79,-4.63 8.13,-9.02 10.06,-13.19z"/>
   <path class="fil2" d="M77.49 45.79l54.87 -0.09c-1.38,1.05 -1.84,2.55 -1.89,3.81l-52.98 0 0 -3.72z"/>
   <path class="fil2" d="M151.71 45.43l223.43 0.36 -2.78 3.72 -223.67 0c2.03,-1.16 2.3,-2.54 3.02,-4.08z"/>
  </g>
 </g>
</svg>
